<?xml version="1.0" encoding="utf-8"?>
<!-- Generator: Adobe Illustrator 21.0.0, SVG Export Plug-In . SVG Version: 6.00 Build 0)  -->
<svg version="1.1" xmlns="http://www.w3.org/2000/svg" xmlns:xlink="http://www.w3.org/1999/xlink" x="0px" y="0px"
	 viewBox="0 0 2666.9 534.9" style="enable-background:new 0 0 2666.9 534.9;" xml:space="preserve">
<style type="text/css">
	.st0{fill:none;stroke:#FFC184;stroke-miterlimit:10;}
	.st1{fill:#FFC184;}
	.st2{fill:none;stroke:#FFC184;stroke-width:20;stroke-miterlimit:10;}
	.st3{fill:#FFC184;stroke:#FFC184;stroke-width:7;stroke-miterlimit:10;}
</style>
<g id="Layer_3">
</g>
<g id="Layer_4">
</g>
<g id="Layer_5">
</g>
<g id="Layer_6">
</g>
<g id="Layer_7">
</g>
<g id="Layer_8">
</g>
<g id="Layer_9">
</g>
<g id="Layer_10">
</g>
<g id="Layer_11">
</g>
<g id="Layer_12">
</g>
<g id="Layer_1">
</g>
<g id="Layer_2">
	<path class="st0" d="M202.1,461.7"/>
	<g>
		<g>
			<path class="st1" d="M258.6,434c-11.3,0.5-22.8,1.9-33.8,4.4c-12.1,2.7-31.7,8.8-28.5,25c1.5,7.6,13,4.4,11.6-3.2
				c-0.1-0.3,0.1-1.2,0.7-2c1.3-1.6,3.3-2.7,5.5-3.8c5.7-2.8,12.3-4.2,18.5-5.4c8.6-1.6,17.3-2.6,26-3
				C266.3,445.6,266.4,433.6,258.6,434L258.6,434z"/>
		</g>
	</g>
	<g>
		<g>
			<path class="st1" d="M257.7,446.2c8.7,0.4,17.5,1.4,26,3c6.1,1.2,12.5,2.5,18.1,5.2c2.3,1.1,4.3,2.2,5.7,3.7
				c0.4,0.4,0.9,1.4,0.7,0.9c0.2,0.4,0.1,1.6,0.2,0.5c0,0.3-0.2,1.8,0,0.7c-1.5,7.5,10.1,10.8,11.6,3.2c3.1-16.1-16.4-22.2-28.5-25
				c-11-2.5-22.5-3.9-33.8-4.4C250,433.8,250,445.8,257.7,446.2L257.7,446.2z"/>
		</g>
	</g>
	<g>
		<g>
			<path class="st1" d="M257.6,446c8.7,0.4,17.5,1.4,26,3c6.1,1.2,12.5,2.5,18.1,5.2c2.3,1.1,4.3,2.2,5.7,3.7
				c0.4,0.4,0.9,1.4,0.7,0.9c0.2,0.4,0.1,1.6,0.2,0.5c0,0.3-0.2,1.8,0,0.7c-1.5,7.5,10.1,10.8,11.6,3.2c3.1-16.1-16.4-22.2-28.5-25
				c-11-2.5-22.5-3.9-33.8-4.4C249.9,433.6,249.9,445.6,257.6,446L257.6,446z"/>
		</g>
	</g>
	<g>
		<g>
			<path class="st1" d="M260,434c-11.3,0.5-22.8,1.9-33.8,4.4c-12.1,2.7-31.7,8.8-28.5,25c1.5,7.6,13,4.4,11.6-3.2
				c-0.1-0.3,0.1-1.2,0.7-2c1.3-1.6,3.3-2.7,5.5-3.8c5.7-2.8,12.3-4.2,18.5-5.4c8.6-1.6,17.3-2.6,26-3
				C267.7,445.6,267.7,433.6,260,434L260,434z"/>
		</g>
	</g>
	<g>
		<g>
			<path class="st1" d="M202.2,466.5c7.7,0,7.7-12,0-12C194.5,454.5,194.5,466.5,202.2,466.5L202.2,466.5z"/>
		</g>
	</g>
	<path d="M630.9,205.7"/>
	<g>
		<g>
			<g>
				<path class="st2" d="M141.9,98c-44,34.6-72.3,88.3-72.3,148.7c0,104.4,84.6,189,189,189s189-84.6,189-189
					c0-60.3-28.3-114.1-72.3-148.7"/>
			</g>
		</g>
		<g>
			<g>
				<path class="st2" d="M73.7,246.4"/>
			</g>
		</g>
		<g>
			<g>
				<path class="st2" d="M259.2,431.9"/>
			</g>
		</g>
		<g>
			<g>
				<path class="st2" d="M444.8,246.4"/>
			</g>
		</g>
		<g>
			<g>
				<path class="st2" d="M444.8,246.4"/>
			</g>
		</g>
		<g>
			<g>
				<path class="st2" d="M259.2,431.9"/>
			</g>
		</g>
	</g>
	<g>
		
			<ellipse transform="matrix(0.9978 -6.633926e-02 6.633926e-02 0.9978 -6.5526 27.3627)" class="st1" cx="408.7" cy="112.3" rx="5.2" ry="14.3"/>
		
			<ellipse transform="matrix(6.633926e-02 -0.9978 0.9978 6.633926e-02 -11.9977 211.8721)" class="st1" cx="107.2" cy="112.3" rx="14.3" ry="5.2"/>
		
			<ellipse transform="matrix(0.9978 -6.633926e-02 6.633926e-02 0.9978 -9.4406 5.8164)" class="st1" cx="82.9" cy="145.1" rx="5.2" ry="14.3"/>
		
			<ellipse transform="matrix(6.633926e-02 -0.9978 0.9978 6.633926e-02 256.3715 564.1008)" class="st1" cx="429.6" cy="145.1" rx="14.3" ry="5.2"/>
		<ellipse transform="matrix(0.979 -0.204 0.204 0.979 -39.4252 17.0698)" class="st1" cx="63.1" cy="199.8" rx="5.2" ry="14.3"/>
		<ellipse transform="matrix(0.204 -0.979 0.979 0.204 165.9646 603.6612)" class="st1" cx="454.2" cy="199.8" rx="14.3" ry="5.2"/>
		<ellipse transform="matrix(0.5 -0.866 0.866 0.5 12.1853 522.6559)" class="st1" cx="458.7" cy="250.8" rx="14.3" ry="5.2"/>
		<ellipse transform="matrix(0.866 -0.5 0.5 0.866 -117.6223 62.5779)" class="st1" cx="58" cy="250.8" rx="5.2" ry="14.3"/>
		
			<ellipse transform="matrix(0.6188 -0.7856 0.7856 0.6188 -63.1219 468.7651)" class="st1" cx="451.4" cy="299.4" rx="14.3" ry="5.2"/>
		
			<ellipse transform="matrix(0.7856 -0.6188 0.6188 0.7856 -171.5863 103.7126)" class="st1" cx="63.8" cy="299.4" rx="5.2" ry="14.3"/>
		
			<ellipse transform="matrix(0.7071 -0.7071 0.7071 0.7071 -117.8679 408.3568)" class="st1" cx="434" cy="346.5" rx="14.3" ry="5.2"/>
		
			<ellipse transform="matrix(0.7071 -0.7071 0.7071 0.7071 -222.036 160.6141)" class="st1" cx="82.9" cy="348.3" rx="5.2" ry="14.3"/>
		<ellipse transform="matrix(0.866 -0.5 0.5 0.866 -136.3554 255.2023)" class="st1" cx="408" cy="382" rx="14.3" ry="5.2"/>
		<ellipse transform="matrix(0.5 -0.866 0.866 0.5 -277.2524 283.8722)" class="st1" cx="107.2" cy="382" rx="5.2" ry="14.3"/>
		
			<ellipse transform="matrix(0.9579 -0.287 0.287 0.9579 -102.1244 123.7967)" class="st1" cx="371.2" cy="410.2" rx="14.3" ry="5.2"/>
		
			<ellipse transform="matrix(0.287 -0.9579 0.9579 0.287 -289.756 431.1533)" class="st1" cx="144.8" cy="410.2" rx="5.2" ry="14.3"/>
		
			<ellipse transform="matrix(0.9967 -8.082473e-02 8.082473e-02 0.9967 -33.8188 28.3587)" class="st1" cx="333.4" cy="431.9" rx="14.3" ry="5.2"/>
		
			<ellipse transform="matrix(8.082505e-02 -0.9967 0.9967 8.082505e-02 -262.6957 576.2332)" class="st1" cx="181.1" cy="430.5" rx="5.2" ry="14.3"/>
		<path class="st1" d="M135.9,108.1c2.6,3,11.4-0.5,19.6-7.7c8.2-7.2,12.7-15.5,10.1-18.5c-2.6-3-16.7-6.4-24.9,0.8
			S133.3,105.2,135.9,108.1z"/>
		<path class="st1" d="M382.6,108.6c-2.7,3.1-11.8-0.5-20.2-8c-8.5-7.5-13.1-16-10.4-19.1c2.7-3.1,17.3-6.6,25.7,0.9
			C386.1,89.9,385.3,105.5,382.6,108.6z"/>
	</g>
	<g>
		<path class="st3" d="M721,273.1l-35.9,125.8h-56.8l-63.8-224.1h56.8l38.3,153.7h1.4l40.7-153.7h38.6L781,328.5h1.4l38.3-153.7
			h56.5l-63.8,224.1h-56.5L721,273.1z"/>
		<path class="st3" d="M988.8,174.8c41.6,0,73.1,22.5,73.1,66.5c0,33.7-18.5,56.2-45.9,64.9l77.1,92.6h-64.9l-68.4-88.5v88.5h-51.1
			V174.8H988.8z M965.8,274.2c19.3,0,42.4-1.4,42.4-29.3c0-28-23.1-29.3-42.4-29.3h-6v58.7H965.8z"/>
		<path class="st3" d="M1250.7,219.6h-77.1v44.5h73.9V309h-73.9V354h77.1v44.8h-128.2V174.8h128.2V219.6z"/>
		<path class="st3" d="M1505.2,398.9h-54.9l-16.6-44.8h-85.3l-16.6,44.8H1277l90.5-224.1h47.3L1505.2,398.9z M1391.4,244h-0.5
			l-25,65.2h50.5L1391.4,244z"/>
		<path class="st3" d="M1506,174.8h157.5v44.8h-53.2v179.3h-51.1V219.6H1506V174.8z"/>
		<path class="st3" d="M1752.4,398.9h-51.1V174.8h51.1v89.4h72.3v-89.4h51.1v224.1h-51.1V309h-72.3V398.9z"/>
		<path class="st3" d="M2072.1,398.9H2021V174.8h51.1V398.9z"/>
		<path class="st3" d="M2175,398.9H2124V174.8h51.1l89.1,139.1h0.5V174.8h51.1v224.1h-51.1l-89.1-139.1h-0.5V398.9z"/>
		<path class="st3" d="M2522.2,338.8l21.7,43.5c0,0-25,20.6-73.6,20.6c-63.3,0-121.4-51.6-121.4-115.7
			c0-64.4,57.9-116.5,121.4-116.5c48.6,0,73.6,20.6,73.6,20.6l-21.7,43.5c0,0-17.9-13.9-44-13.9c-51.3,0-73.9,35.9-73.9,65.7
			c0,30.2,22.5,66,73.9,66C2504.2,352.7,2522.2,338.8,2522.2,338.8z"/>
		<path class="st3" d="M2662,366.1c0,20.8-16.9,37.7-38,37.7c-20.8,0-37.7-16.9-37.7-37.7c0-21.2,16.9-38,37.7-38
			C2645.1,328.1,2662,345,2662,366.1z"/>
	</g>
	<g>
		<rect x="1555.8" y="331" class="st1" width="58.1" height="114.3"/>
	</g>
	<g>
		<rect x="2017.5" y="331" class="st1" width="58.1" height="114.3"/>
	</g>
	<g>
	</g>
	<g>
	</g>
	<g>
	</g>
	<g>
	</g>
	<g>
	</g>
</g>
</svg>
