<svg id="Layer_1" data-name="Layer 1" xmlns="http://www.w3.org/2000/svg" viewBox="0 0 640 480"><defs><style>.cls-1{fill-rule:evenodd;}</style></defs><title>Artboard 1</title><path class="cls-1" d="M314.57,7.8c21.69-.25,36.83,10.33,43.15,25.46,9.75,23.32-6.09,43.65-23.3,48.76-8.76,2.6-19.72,0-25.89-2.59C295,73.7,287.41,67.78,283.07,52.68c-1.06-3.69-2-9.16-.86-13.81.75-3.12,1.33-6.95,2.59-9.92a36.2,36.2,0,0,1,17.69-18.12c3.18-1.39,9.3-1,12.08-3Zm-3,4.75c-2.59,1.81-6.42,1.7-9.49,3-6.4,2.75-12.41,10.39-14.67,17.26-7.67,23.29,6.74,36.32,22,42.72,6.33,2.66,17.53,5.21,25.89,2.16,14-5.12,28.46-26.38,17.69-44.88-7.89-13.56-19.49-20.46-41.42-20.28ZM136.79,195.07c-1,8-4,21-2.16,29.34.77,3.48-.37,8.33,2.16,9.92v-.86c1.47-1.58,1.55-4,2.59-6a82.5,82.5,0,0,1,7.34-11.65c5.85-7.87,16-10.3,24.59-15.53,3.56-2.16,6.31-5.76,11.65-6l.43,1.29c1.36,3.06-2.8,14-3.88,16.83-4.12,10.64-11.21,16.81-19.85,22.87-6,4.18-10.76,9-21.14,7.77.19,3.38,1.7,6.33,2.59,9.06,1.12,3.47.91,6.57,2.16,9.92,2.85,7.67,5.77,15.87,9.06,23.73l.43-.43c2.88-2.93,3.81-7.63,6-11.22,4-6.42,9.21-12.34,13.38-18.55,3-4.46,4.94-9.19,9.92-11.65v2.59c-1.39,1.77-1.76,4.14-3,6-2.24,3.36-5.43,6.6-7.77,9.92-3.23,4.6-5.52,9.56-8.63,14.24-2.87,4.32-8.14,9.69-9.06,15.53-.45,2.89,2.55,6.94,3.45,9.06,2.72,6.4,4.26,12.88,7.77,18.55,1,1.69,2.82,3.5,3.88,5.18,1.23,1.94,1.7,4.23,3.45,5.61l.43.43V318.91c1.2-2,.19-4.66.86-7.34,1.49-6,3.52-12.42,6.47-17.26,7.33-12,18.62-19.86,28-29.77.76.27.42.08.86.43,2.12,3.13.91,19.59,0,23.3-.87,3.54-.34,6.2-1.29,9.49-2.72,9.41-6.08,18.59-10.79,26.32-2.79,4.58-5.43,9.85-8.63,14.24l-3.88,3.45v5.61c3.05,2,4.8,5.25,7.34,7.77,3.12,3.1,7.26,5.55,10.79,8.2,5.81,4.38,10.79,9.86,16.83,14.24,3.59,2.6,7.27,7.09,11.65,8.63V373.71c-1.52-2.39-.43-9.57-.43-12.94,0-12-1.79-28.56,2.16-37.11l.86.43c6,13.11-.82,37.66,2.59,53.51.91,4.22-1.3,10.5.86,13.38,1.6,1.46,3.68,1.82,5.61,3,2.14,1.33,4.29,3.41,6.47,4.75,5.71,3.49,11.81,5.44,17.69,8.63,4,2.19,8,5.82,12.51,7.34v-.43c-5.25-5.27-7.73-11.82-10.36-19.85-5.09-15.53-11.05-33-6-52.64,1.91-7.5,2.12-12.22,6.47-16.83l1.29.43c5.93,13.34,13.18,26.71,18.12,41.42,2,5.82,2,12.05,3.45,18.55.56,2.45-.4,6.24-.86,8.2l-.86,10.79c-1.55,5.84-3.53,8.58-3.45,15.53,4.25,1.78,8.05,4.15,12.51,5.61,4.85,1.58,9.55,1.61,14.67,3,2.45.67,5.88,3.16,9.49,2.16,2.15-.6,4.07-2.59,6-3.45,7.57-3.33,14.57-6.75,21.58-10.36,4.56-2.35,16.13-5.3,18.12-9.49h-.43c-1.66-4.67-7.77-7.16-10.36-11.22-6.84-10.74-11.81-39.6-7.34-57,1.35-5.22.55-12.93,5.18-14.67a4.63,4.63,0,0,1,3-.86c2.29,3.91,6.15,6.71,8.63,10.36a96.51,96.51,0,0,1,8.2,15.53c2.88,6.78,6.19,30.25,3.88,40.13-1.08,4.64-2.63,9.67-3,14.67,2.66-.44,4.15-2.29,6-3.45,3-1.85,6.26-2.74,9.06-4.75,3-2.12,5.65-5.22,8.63-7.34,2.71-1.92,5.9-2.35,6-6.9-1.73-2.64-.85-7.33-1.73-10.79-1-4-.78-9.84-1.73-14.24v-8.2c-1.41-6.5-1.56-14.09-1.29-21.14a4.55,4.55,0,0,1,2.16-.86c.44.35.12.15.86.43v3.45c2,3.31-.13,12.29.86,16.83,2.37,10.88.65,23.83,4.31,33.66,12.77-7.66,20-22.36,30.64-32.36v-.86c-3.82-1.32-5-4.91-6.9-8.2-5.54-9.46-6.64-23.07-9.49-35.38-2.4-10.38,4.68-26.58,10.79-28,1.1,1.53,3.2,2,4.31,3.45,2.92,3.84,6.29,8.32,8.2,12.94,2.55,6.17,5,24.72,3,33.66a53.16,53.16,0,0,0-1.73,11.65h.43V337c7-4.54,11.56-14.47,15.53-22,1.12-2.13,3.7-5.88,2.59-9.92-3-10.8-13.33-15.74-13.81-29.34h1.29c1,1.76,2.78,2.43,3.88,3.88l2.59,6.47c1.55,3,3.89,5.81,5.61,8.63,1.54,2.54,1.58,6.45,4.31,7.77v-.43c3.77-4.16,4.76-10.59,6.9-16.4,2.35-6.35,5.83-13.18,6.9-20.28-16.77,2-30.39-19.47-33.66-32.79-1.28-5.22.33-12.08.43-16.83a7.81,7.81,0,0,0,1.73-1.29c13.88,3.34,21.72,14.53,27.62,25.89,1.37,2.63,6,15.44,7.77,16.4v-.86c2.29-3.54,1.48-9.17,2.59-13.81,1.5-6.26,3.2-13.16,3.45-20.28-6.32-4-15-11.76-19.42-17.69-1.76-2.37-2.73-5.63-4.75-7.77l.43-.86c2.26,1.29,5.15,2.32,7.34,3.88,1.17.84,1.7,2.28,2.59,3.45,2.33,3.08,11.27,11.59,14.67,13.38a21.21,21.21,0,0,1,.86-5.18v-39.7c-15.76-7.61-29.94-27.52-31.5-49.19l.43-.43,3.45-.43c4.37,4.46,11.29,6.17,15.1,11.22,7,9.31,15,20.37,17.26,34.09.39,2.34-.86,6.53-.86,10.36V208h.43l5.61-5.61c7.24-9.58,18.35-17.54,35-16.4l1.29,1.29c-5.74,14.1-14,26.52-26.32,34.09-3.4,2.1-8.12,3.49-12.08,4.75-1.83.58-5.23.08-6.47,1.29-2.08,2-1,6.5-1.73,9.92-1.14,5.14-1.12,10.7-2.59,16-.85,3-2.54,5.72-3,9.06h.86c1.44-1.1,3.58-1.19,5.18-2.16,3.2-1.94,6.57-3.93,9.92-6,3.74-2.35,6.29-6.29,12.08-6.47l.43.43V249c-2.28,1.5-3.79,4.11-6,5.61-4,2.68-8.52,4.91-12.51,7.34s-9.06,3.37-11.65,6.9c-1.66,2.27-1.43,5.27-2.59,8.2-2.14,5.4-5.63,11.39-6.47,17.69h.86c2.39-3.44,7.13-4.25,10.79-6.47,9.52-5.78,20.4-9.84,32.79-12.94,6.17-1.55,21.93.26,22.87,4.75-5,3.39-7.19,11.09-10.79,16-5.09,6.91-14.69,12.71-23.3,16-6.69,2.53-19.84,4.23-28,1.73-3-.91-11.62-6.1-11.65-6-3.89,3.92-4.75,10.73-7.77,15.53-5.38,8.55-13.9,15.09-18.55,24.16h4.31c2.92-2,7.88-1.47,11.65-2.59,13.15-3.9,31.66-5.83,46.6-3-.44.35-.12.15-.86.43-1.14.72-2.81.38-4.31.86-1.76.56-4.73,1.68-6.47,2.16H486.73c-4.71,1.07-10.06.48-15.1,1.73-8.8,2.17-17.16,5-27.18,3.88-1.5,2.53-3.94,3.83-5.61,6-4.31,5.71-9.07,10.69-13.38,16.4l-5.18,5.18h.86c4.76-3.67,14.11-.66,21.14-2.16,17.25-3.68,36.48-.93,47.46,6.47,3.81,2.56,8.21,5.37,8.63,11.22-2.36,1.42-3.87,3.67-6,5.18-3.26,2.27-7.94,4.1-11.65,5.61-15.93,6.48-39.47,4.54-53.94-1.73a66.91,66.91,0,0,1-12.94-7.77c-2.23-1.68-3.16-5.61-5.61-6.9v.43c-3.81,1.26-6.51,5.12-9.49,7.34a113.52,113.52,0,0,1-18.12,11.22v.86h.86c3.44,2.51,9.17,2.72,13.38,4.31,7.54,2.86,15.3,6.39,22.44,9.49,5.27,2.29,9.66,2.89,13.38,6.47v.86h-.86c-2.45,1.59-12.11-2.82-14.24-3.88-10.2-5.09-20.91-7.77-32.79-11.65l-7.34-3c-4.63-1.16-8.94,3.7-11.65,5.18-3.94,2.14-7.89,3.34-12.08,5.18-6.11,2.69-11.64,6.36-18.12,9.06.44.35.12.15.86.43,5,4.25,15.17,2.79,22.44,4.75,15.49,4.17,32.08,7.28,46.6,12.51,5,1.8,17.37,3.35,19,7.77h.43l-.43.43c-1,1.63-8.22,8.86-10.79,8.2-2.37-.61-4.58-3.85-6.47-5.18l-14.67-7.34c-13.62-6-28.39-8.59-44-12.94-4.51-1.26-9.67-1.64-14.67-3-1.78-.49-4.88-2.37-7.34-1.73-2.25.59-4.45,2.56-6.47,3.45-4.51,2-8.83,2.76-13.38,4.75-6.41,2.8-12,7.26-17.69,10.79-5.91,3.64-12.24,5.83-18.12,9.49-6.75,4.2-15.52,14.24-25,14.67-1.56-1.53-4.6-2.3-5.61-4.31-.35-.51-.33-.73-.43-1.73,6.07-3.75,12.23-8.26,18.55-12.08,7.31-4.42,15.21-6.84,23.3-10.36,11.76-5.1,23.92-10.11,35.81-15.1v-.43H315c-3.48-2.21-9.29-1.69-13.38-3-2.79-.91-6.15-1.78-9.06-3-3.36-1.43-6.47-4.39-10.36-5.18-1.79,1.32-4.42,1.53-6.47,2.59-5.77,3-12.32,6-18.56,8.63-4.25,1.77-8.24,2.12-12.51,3.88-8,3.3-18.59,9.34-28.91,9.49v-.86c-.35-.51-.33-.73-.43-1.73,15.27-6.56,31.54-11.71,46.6-18.12,4-1.72,14.31-3.86,16-7.34-3-.91-5.33-3.25-7.77-4.75-3.73-2.29-7.8-3.27-11.65-5.61-5.2-3.16-8.36-6.74-16.83-6.9-2.82,4-8.92,4.49-13.81,6.47C210,415,177,415.41,157.5,409.09c-7.73-2.51-8.72-3.81-13.38-9.06-1.56-1.76-3.52-2.1-3.88-5.18.35-.44.15-.12.43-.86,1.91-1.24,4.05-3.28,6-4.31,3.34-1.73,7.26-1.54,11.22-2.59,7.08-1.87,14.8-2.59,24.16-2.59h7.34c3.83.82,8.33.36,12.51,1.29a111,111,0,0,0,23.3,2.16v-.43C212.12,380,201.82,368.07,189.86,359c-4.14-3.12-6.52-9.17-11.65-11.22-4.2-1.68-11.57.28-16.4-.86-11-2.59-24.66-3.66-35.81-6.47-5.12-1.29-11.82-.42-14.67-3.88a29.79,29.79,0,0,0,5.18-1.29c6-1.44,13.27.72,17.69,1.73l13.81.86c8.43,2.07,17,4.37,27.18,4.75v-.86c-2.82-2-4.1-5.72-6-8.63-4.87-7.32-10.2-15.18-13.81-23.73-1.59-3.76-1.36-9.29-4.31-11.65-6.72-4.59-19.47.65-28-1.73-12.6-3.48-26.21-12.93-35-20.71-3.15-2.81-7.09-5.6-7.77-10.79a14.21,14.21,0,0,1,4.31-.43c3.13-2.05,17.18,1,19.85,1.73,14.4,4.16,25,8.93,35.81,16.4l9.06,9.06v-2.16c-2-2.79-2.06-7.49-3.45-10.79-4.76-11.26-8.56-23.75-12.08-36.68-15.26-7.33-29.21-16.74-40.56-28v-1.29c4.33.22,8.15,3.73,11.22,5.61,5.66,3.46,10.62,6.61,16,10.36,3.59,2.52,7.06,5.8,11.65,7.34v-1.73c-4.33-6.1-.51-24.84-.43-33.23-3.4-1-9-1.64-12.08-3.45-11.69-6.88-25.31-30.78-24.6-48.76,9.44.35,16.83,10,22.87,14.24,3,2.08,6.93,3.63,9.06,6.47,1.72,2.29,6.22,10.44,7.77,10.79,3-3.49,2.29-10.66,3.88-15.53.92-2.8,2.66-5.67,3.45-8.63l1.29-12.94c4.34-13.41,14.69-32.23,31.07-33.23v.86c1.17,2.07-1.85,12.84-2.59,15.1-3.78,11.61-8.4,19.22-16,26.75-2,2-10.53,6.65-11.22,8.2-1.91,2.18-1.63,5.86-2.59,9.06-1.87,6.23-4.16,12.35-4.31,20.28h.86c1.72-4.3,13.94-11.39,17.69-15.1,1.14-1.12,4.4-5.43,6-4.31h.43c-2.52,6.21-14.07,15.84-19.42,19.85-2.14,1.61-3.25,4.14-6.47,4.75Zm9.49-41.42h1.29c2.58-3.69,7.63-5.84,10.36-9.49a58,58,0,0,0,11.65-28.48c-11.28,1.06-18.86,18.67-22,28.48a32.29,32.29,0,0,0-1.29,9.49ZM469.47,126c3,15.27,10.62,28.31,21.57,35.81,2.13,1.46,3.14,3.94,6,4.75v-.86c-1.28-1.88-.85-4.51-1.73-6.9a91.57,91.57,0,0,0-8.2-16.83c-2.2-3.47-5.77-8.35-9.06-10.79-2.37-1.75-5.22-2.76-6.9-5.18ZM98.39,152.79c-.59,3.88,6.43,8.6,8.63,11.65,3.07,4.25,5.16,9.05,8.2,13.38,1.77,2.52,4.65,4.47,6.47,6.9a130.45,130.45,0,0,0,9.92,12.08h.86v-3.45c2-3.19-3.5-11.37-4.75-13.38-5.06-8.16-11-13.78-18.55-19.42-3.48-2.6-5.91-6.51-10.79-7.77Zm439.69,35.38c-15.37,0-24.82,11.28-31.5,20.28-3.08,4.15-7.29,7.48-7.34,14.67h.43c4-5.67,14.84-12.42,20.71-16.83,6.41-4.81,10.87-12.29,17.69-16.83v-1.29ZM178.65,200.68c-3.67.73-7.72,4.63-10.79,6.47s-6.53,2.44-9.49,4.31c-8.14,5.16-15.49,16.31-18.12,26.75h.86c4.16,2.63,11.25-3.76,13.38-5.18,9.56-6.38,24.12-17,24.16-32.36ZM456.1,221.82v9.92c1.05,4.1,4.08,6.77,6,9.92,5.5,8.83,9.88,19.05,23.3,19.85-1.19-9.92-13.43-26.8-19.42-32.79-2.76-2.76-5-6.29-9.92-6.9ZM144.56,292.16v-1.29c-5-1.74-8.36-8.25-12.51-11.22-6.48-4.63-18.83-8.89-27.18-11.22l-6-.43c-3.7-.94-10.81-2.53-14.67-1.29l.43.43c2.89,4,8.95,4.78,13.81,6.9,9.5,4.14,20.9,7,30.64,11.22,4.95,2.16,9.37,6,15.53,6.9Zm61.27-17.69h-1.29c-2.73,3.86-8.31,5.4-11.22,9.06-9.72,12.21-23,34.64-14.24,57l.43-.43c5.44-3.71,8.56-10.29,12.08-16a91.46,91.46,0,0,0,14.24-49.62Zm333.55,4.31c-3.94,2.32-10.21.3-15.53,1.73a130.34,130.34,0,0,0-35,14.67c-3.84,2.39-10.31,4.34-11.22,9.49,1.95,1.17,3,2.35,6,2.59,3-3.54,12.5-4.74,17.69-6.47,10-3.33,18.85-9.33,28-13.38,4-1.76,12-3.56,12.94-8.2l-.43-.43Zm-104.85,3.45c-2,3.31-4.49,6.55-5.61,10.79-1.45,5.49-.31,13.51.86,18.12,2.61,10.24,3.46,20,8.2,28,1.14,1.93,3.08,3.35,4.31,5.18h.86v-.86c2.13-2.92,1.52-7.64,2.59-11.65,3.9-14.55.92-33.35-5.61-42.72-1.7-2.44-2.58-5.84-5.61-6.9Zm-76.81,49.19c-5.2,23.11-2.93,61.86,14.24,70.33v-.86c2.73-3.44,2.16-15.68,2.16-22,0-16.33-3.08-29-9.49-38.84-2-3-3.29-7.38-6.9-8.63Zm-88.46,1.73a107.77,107.77,0,0,0-4.31,14.24c-1.64,6.48-.47,16.52.86,22,2.62,10.81,3.79,20.23,7.77,29.34,2.24,5.14,5.94,9.37,8.2,14.67h.43l3.45-14.24v-9.49c2.79-13.71-5.4-29.12-9.06-38.83-1.68-4.45-3.7-15.94-7.34-17.69ZM493.21,391v-1.29c-1.7-.61-1.8-1.71-3-2.59a44,44,0,0,0-9.49-5.18l-7.34-.43c-18.79-4.56-40.24,1.26-59.12,1.29l-.86.86v.86c1.85.47,3.47,1.64,5.18,2.16L429.78,388c4.88,1.16,10.74,1.84,16,3h8.2c10.67,2.34,29.22,0,39.27,0Zm-318.88-2.16c-1.44.83-4,0-6,.43-6.82,1.53-21.66.45-22.44,7.34h.86c5.07,3.21,12.85-.72,18.55.43,3.36.68,8.61-.4,12.51.43,6.4,1.36,15,.9,21.14-.43h24.6A53.59,53.59,0,0,1,236,395.29v-.86c-2.3-1.14-5.17-1.34-9.06-1.29-3.73-2.29-12.59-.62-17.69-1.73-10.79-2.34-22.09-2.54-35-2.59Z"/></svg>