<svg enable-background="new 0 0 619.8 397.5" viewBox="0 0 619.8 397.5" xmlns="http://www.w3.org/2000/svg"><ellipse cx="463.1" cy="40.8" rx="4.8" ry="13.1" transform="matrix(.9978 -.06633926 .06633926 .9978 -1.687 30.8132)"/><ellipse cx="151.1" cy="41.2" rx="13.1" ry="4.8" transform="matrix(.06633926 -.9978 .9978 .06633926 99.9748 189.1622)"/><ellipse cx="127.7" cy="79.1" rx="4.8" ry="13.1" transform="matrix(.9978 -.06633926 .06633926 .9978 -4.9658 8.6446)"/><ellipse cx="486.3" cy="79.1" rx="13.1" ry="4.8" transform="matrix(.06633926 -.9978 .9978 .06633926 375.0766 559.0309)"/><ellipse cx="109.7" cy="125.7" rx="4.8" ry="13.1" transform="matrix(.979 -.204 .204 .979 -23.3339 25.0189)"/><ellipse cx="503.3" cy="125.7" rx="13.1" ry="4.8" transform="matrix(.204 -.979 .979 .204 277.5865 592.78)"/><ellipse cx="508.3" cy="176.5" rx="13.1" ry="4.8" transform="matrix(.5 -.866 .866 .5 101.2897 528.4656)"/><ellipse cx="104.9" cy="176.5" rx="4.8" ry="13.1" transform="matrix(.866 -.5 .5 .866 -74.2065 76.0844)"/><ellipse cx="502.3" cy="220.5" rx="13.1" ry="4.8" transform="matrix(.6188 -.7856 .7856 .6188 18.2795 478.646)"/><ellipse cx="110.3" cy="220.5" rx="4.8" ry="13.1" transform="matrix(.7856 -.6188 .6188 .7856 -112.782 115.5358)"/><ellipse cx="486.3" cy="263.6" rx="13.1" ry="4.8" transform="matrix(.7071 -.7071 .7071 .7071 -43.9555 421.0335)"/><ellipse cx="128.7" cy="265.3" rx="4.8" ry="13.1" transform="matrix(.7071 -.7071 .7071 .7071 -149.8931 168.7045)"/><ellipse cx="463.7" cy="300.4" rx="13.1" ry="4.8" transform="matrix(.866 -.5 .5 .866 -88.093 272.1232)"/><ellipse cx="151" cy="300.4" rx="4.8" ry="13.1" transform="matrix(.5 -.866 .866 .5 -184.7096 280.9644)"/><ellipse cx="426.4" cy="333.8" rx="13.1" ry="4.8" transform="matrix(.9579 -.287 .287 .9579 -77.8542 136.4256)"/><ellipse cx="184.1" cy="332.3" rx="4.8" ry="13.1" transform="matrix(.287 -.9579 .9579 .287 -187.1035 413.2741)"/><ellipse cx="386.8" cy="355.6" rx="13.1" ry="4.8" transform="matrix(.9967 -.08082473 .08082473 .9967 -27.4769 32.4241)"/><ellipse cx="227.5" cy="355.6" rx="4.8" ry="13.1" transform="matrix(.08082505 -.9967 .9967 .08082505 -145.3491 553.6127)"/><path d="m306.5 369.3c-10.9.5-21.9 1.8-32.6 4.2-9 2-27.9 6.6-25.4 19.4.4 1.9 3.3 1.1 2.9-.8-2.3-11.6 20.5-15.3 27.9-16.7 9-1.7 18.1-2.8 27.2-3.2 1.9 0 1.9-3 0-2.9z"/><path d="m306.5 372.3c9.1.4 18.3 1.5 27.2 3.2 7.4 1.4 30.1 5.1 27.9 16.7-.4 1.9 2.5 2.7 2.9.8 2.5-12.8-16.4-17.4-25.4-19.4-10.6-2.4-21.7-3.8-32.6-4.2-1.9-.2-1.9 2.8 0 2.9z"/><path d="m305.5 375.3c8.8.4 17.7 1.4 26.4 3.1 5.5 1 27.4 4.7 25.8 13-1.1 5.7 7.6 8.1 8.7 2.4 2.9-15.1-16.4-20.6-27.5-23.1-10.9-2.5-22.2-3.9-33.4-4.3-5.8-.3-5.8 8.7 0 8.9z"/><path d="m307.9 366.3c-11.2.5-22.5 1.9-33.4 4.3-11.1 2.5-30.4 8-27.5 23.1 1.1 5.7 9.8 3.3 8.7-2.4-1.6-8.2 20.3-11.9 25.8-13 8.7-1.7 17.6-2.7 26.4-3.1 5.7-.1 5.8-9.1 0-8.9z"/><path d="m250.1 392.9c1.9 0 1.9-3 0-3-2 0-2 3 0 3z"/><path d="m250.3 393.5c1.9 0 1.9-3 0-3-2 0-2 3 0 3z"/><path d="m249.2 392.9c.1.1.1.1 0 0s-.1-.4 0-.6c.5-.4 1-.7 1.4-1.1-.1 0-.2 0-.4 0-.8.1-1.5.7-1.5 1.5s.7 1.6 1.5 1.5h.4c.6 0 1.3-.4 1.4-1.1.2-.9-.1-1.7-.8-2.3-.6-.6-1.5-.6-2.1 0-.5.5-.5 1.5.1 2.1z"/><path d="m363.1 393.6c1.9 0 1.9-3 0-3s-1.9 3 0 3z"/><path d="m361.7 391.7c.1-.2.1-.3.3-.4.1-.1.1-.1 0 0-1.3.6-.7 2.9.8 2.8h.2c.8 0 1.5-.7 1.5-1.5s-.7-1.5-1.5-1.5c-.1 0-.1 0-.2 0 .3.9.5 1.9.8 2.8.5-.3 1-.8 1.1-1.4.2-.8-.2-1.7-1-1.8-.9-.2-1.8.2-2 1z"/><path d="m182.6 19.7c1.7 2 7.6-.3 13-5.1s8.4-10.3 6.7-12.3-11.1-4.2-16.5.6-5 14.8-3.2 16.8z"/><path d="m185.2 15.3c-46 36.1-75.5 92.2-75.5 155.2 0 109 88.3 197.3 197.3 197.3s197.3-88.3 197.3-197.3c0-63-29.5-119.1-75.5-155.2" fill="none" stroke="#000" stroke-miterlimit="10" stroke-width="8"/><path d="m433.4 19.7c-1.7 2-7.6-.3-13-5.1s-8.4-10.3-6.7-12.3 11.1-4.2 16.5.6 4.9 14.8 3.2 16.8z"/><g stroke="#000" stroke-miterlimit="10" stroke-width="7"><path d="m71.1 157.4-15.2 53.2h-24l-27-94.9h24l16.2 65.1h.6l17.3-65.1h16.3l17.3 65.1h.6l16.2-65.1h23.9l-27 94.9h-24z"/><path d="m184.5 115.8c17.6 0 30.9 9.5 30.9 28.2 0 14.3-7.8 23.8-19.4 27.5l32.7 39.2h-27.5l-29-37.5v37.5h-21.6v-94.9zm-9.8 42.1c8.2 0 17.9-.6 17.9-12.4s-9.8-12.4-17.9-12.4h-2.5v24.8z"/><path d="m295.3 134.8h-32.7v18.9h31.4v19h-31.3v19.1h32.7v19h-54.3v-94.9h54.3v18.9z"/><path d="m403.1 210.7h-23.2l-7-19h-36.1l-7 19h-23.2l38.3-94.9h20zm-48.2-65.6h-.2l-10.6 27.6h21.4z"/><path d="m403.4 115.8h66.7v19h-22.5v75.9h-21.6v-75.9h-22.5v-19z"/><path d="m507.8 210.7h-21.6v-94.9h21.6v37.8h30.6v-37.8h21.6v94.9h-21.6v-38.1h-30.6z"/><path d="m615.5 196.8c0 8.8-7.1 16-16.1 16-8.8 0-16-7.1-16-16 0-9 7.1-16.1 16-16.1s16.1 7.1 16.1 16.1z"/></g><path d="m422.5 191.5h28.6v57.8h-28.6z"/><path d="m399.9 112.3h27.7v25.4h-27.7z"/></svg>