<?xml version="1.0" encoding="utf-8"?>
<!-- Generator: Adobe Illustrator 21.0.0, SVG Export Plug-In . SVG Version: 6.00 Build 0)  -->
<svg version="1.1" xmlns="http://www.w3.org/2000/svg" xmlns:xlink="http://www.w3.org/1999/xlink" x="0px" y="0px"
	 viewBox="0 0 1430.9 521.3" style="enable-background:new 0 0 1430.9 521.3;" xml:space="preserve">
<style type="text/css">
	.st0{fill:#FFFFFF;}
	.st1{fill:none;stroke:#FFFFFF;stroke-miterlimit:10;}
	.st2{fill:none;stroke:#FFFFFF;stroke-width:20;stroke-miterlimit:10;}
	.st3{fill:none;}
	.st4{fill:#FFFFFF;stroke:#FFFFFF;stroke-width:7;stroke-miterlimit:10;}
</style>
<g id="Layer_3">
</g>
<g id="Layer_4">
</g>
<g id="Layer_5">
</g>
<g id="Layer_6">
</g>
<g id="Layer_7">
</g>
<g id="Layer_8">
</g>
<g id="Layer_9">
</g>
<g id="Layer_10">
</g>
<g id="Layer_11">
</g>
<g id="Layer_12">
</g>
<g id="Layer_1">
</g>
<g id="Layer_2">
	
		<ellipse transform="matrix(0.9978 -6.633926e-02 6.633926e-02 0.9978 -5.6487 27.3327)" class="st0" cx="408.7" cy="98.7" rx="5.2" ry="14.3"/>
	
		<ellipse transform="matrix(6.633926e-02 -0.9978 0.9978 6.633926e-02 1.5986 199.1497)" class="st0" cx="107.2" cy="98.7" rx="14.3" ry="5.2"/>
	
		<ellipse transform="matrix(0.9978 -6.633926e-02 6.633926e-02 0.9978 -8.5366 5.7864)" class="st0" cx="82.9" cy="131.4" rx="5.2" ry="14.3"/>
	
		<ellipse transform="matrix(6.633926e-02 -0.9978 0.9978 6.633926e-02 269.9678 551.3784)" class="st0" cx="429.6" cy="131.4" rx="14.3" ry="5.2"/>
	<ellipse transform="matrix(0.979 -0.204 0.204 0.979 -36.6456 16.7833)" class="st0" cx="63.1" cy="186.1" rx="5.2" ry="14.3"/>
	<ellipse transform="matrix(0.204 -0.979 0.979 0.204 179.3045 592.8145)" class="st0" cx="454.2" cy="186.1" rx="14.3" ry="5.2"/>
	<ellipse transform="matrix(0.5 -0.866 0.866 0.5 23.986 515.8427)" class="st0" cx="458.7" cy="237.1" rx="14.3" ry="5.2"/>
	<ellipse transform="matrix(0.866 -0.5 0.5 0.866 -110.8092 60.7523)" class="st0" cx="58" cy="237.1" rx="5.2" ry="14.3"/>
	
		<ellipse transform="matrix(0.6188 -0.7856 0.7856 0.6188 -52.4176 463.5705)" class="st0" cx="451.4" cy="285.8" rx="14.3" ry="5.2"/>
	
		<ellipse transform="matrix(0.7856 -0.6188 0.6188 0.7856 -163.1545 100.7906)" class="st0" cx="63.8" cy="285.8" rx="5.2" ry="14.3"/>
	
		<ellipse transform="matrix(0.7071 -0.7071 0.7071 0.7071 -108.2327 404.3657)" class="st0" cx="434" cy="332.8" rx="14.3" ry="5.2"/>
	
		<ellipse transform="matrix(0.7071 -0.7071 0.7071 0.7071 -212.4007 156.6231)" class="st0" cx="82.9" cy="334.7" rx="5.2" ry="14.3"/>
	<ellipse transform="matrix(0.866 -0.5 0.5 0.866 -129.5422 253.3767)" class="st0" cx="408" cy="368.4" rx="14.3" ry="5.2"/>
	<ellipse transform="matrix(0.5 -0.866 0.866 0.5 -265.4517 277.059)" class="st0" cx="107.2" cy="368.4" rx="5.2" ry="14.3"/>
	
		<ellipse transform="matrix(0.9579 -0.287 0.287 0.9579 -98.2134 123.2234)" class="st0" cx="371.2" cy="396.6" rx="14.3" ry="5.2"/>
	
		<ellipse transform="matrix(0.287 -0.9579 0.9579 0.287 -276.703 421.4379)" class="st0" cx="144.8" cy="396.6" rx="5.2" ry="14.3"/>
	
		<ellipse transform="matrix(0.9967 -8.082473e-02 8.082473e-02 0.9967 -32.7174 28.3141)" class="st0" cx="333.4" cy="418.3" rx="14.3" ry="5.2"/>
	
		<ellipse transform="matrix(8.082505e-02 -0.9967 0.9967 8.082505e-02 -249.1139 563.7082)" class="st0" cx="181.1" cy="416.9" rx="5.2" ry="14.3"/>
	<path class="st1" d="M202.1,448.1"/>
	<g>
		<g>
			<path class="st0" d="M258.6,420.3c-11.3,0.5-22.8,1.9-33.8,4.4c-12.1,2.7-31.7,8.8-28.5,25c1.5,7.6,13,4.4,11.6-3.2
				c-0.1-0.3,0.1-1.2,0.7-2c1.3-1.6,3.3-2.7,5.5-3.8c5.7-2.8,12.3-4.2,18.5-5.4c8.6-1.6,17.3-2.6,26-3
				C266.3,432,266.4,420,258.6,420.3L258.6,420.3z"/>
		</g>
	</g>
	<g>
		<g>
			<path class="st0" d="M257.7,432.5c8.7,0.4,17.5,1.4,26,3c6.1,1.2,12.5,2.5,18.1,5.2c2.3,1.1,4.3,2.2,5.7,3.7
				c0.4,0.4,0.9,1.4,0.7,0.9c0.2,0.4,0.1,1.6,0.2,0.5c0,0.3-0.2,1.8,0,0.7c-1.5,7.5,10.1,10.8,11.6,3.2c3.1-16.1-16.4-22.2-28.5-25
				c-11-2.5-22.5-3.9-33.8-4.4C250,420.2,250,432.2,257.7,432.5L257.7,432.5z"/>
		</g>
	</g>
	<g>
		<g>
			<path class="st0" d="M257.6,432.3c8.7,0.4,17.5,1.4,26,3c6.1,1.2,12.5,2.5,18.1,5.2c2.3,1.1,4.3,2.2,5.7,3.7
				c0.4,0.4,0.9,1.4,0.7,0.9c0.2,0.4,0.1,1.6,0.2,0.5c0,0.3-0.2,1.8,0,0.7c-1.5,7.5,10.1,10.8,11.6,3.2c3.1-16.1-16.4-22.2-28.5-25
				c-11-2.5-22.5-3.9-33.8-4.4C249.9,420,249.9,432,257.6,432.3L257.6,432.3z"/>
		</g>
	</g>
	<g>
		<g>
			<path class="st0" d="M260,420.3c-11.3,0.5-22.8,1.9-33.8,4.4c-12.1,2.7-31.7,8.8-28.5,25c1.5,7.6,13,4.4,11.6-3.2
				c-0.1-0.3,0.1-1.2,0.7-2c1.3-1.6,3.3-2.7,5.5-3.8c5.7-2.8,12.3-4.2,18.5-5.4c8.6-1.6,17.3-2.6,26-3
				C267.7,432,267.7,420,260,420.3L260,420.3z"/>
		</g>
	</g>
	<g>
		<g>
			<path class="st0" d="M202.2,452.9c7.7,0,7.7-12,0-12C194.5,440.9,194.5,452.9,202.2,452.9L202.2,452.9z"/>
		</g>
	</g>
	<path d="M595.5,149.6"/>
	<path class="st0" d="M135.9,94.5c2.6,3,11.4-0.5,19.6-7.7c8.2-7.2,12.7-15.5,10.1-18.5s-16.7-6.4-24.9,0.8
		C132.5,76.4,133.3,91.5,135.9,94.5z"/>
	<g>
		<g>
			<g>
				<path class="st2" d="M141.9,84.4c-44,34.6-72.3,88.3-72.3,148.7c0,104.4,84.6,189,189,189s189-84.6,189-189
					c0-60.3-28.3-114.1-72.3-148.7"/>
			</g>
		</g>
		<g>
			<g>
				<path class="st2" d="M73.7,232.7"/>
			</g>
		</g>
		<g>
			<g>
				<path class="st2" d="M259.2,418.3"/>
			</g>
		</g>
		<g>
			<g>
				<path class="st2" d="M444.8,232.7"/>
			</g>
		</g>
		<g>
			<g>
				<path class="st2" d="M444.8,232.7"/>
			</g>
		</g>
		<g>
			<g>
				<path class="st2" d="M259.2,418.3"/>
			</g>
		</g>
	</g>
	<path class="st0" d="M382.6,95c-2.7,3.1-11.8-0.5-20.2-8c-8.5-7.5-13.1-16-10.4-19.1c2.7-3.1,17.3-6.6,25.7,0.9
		C386.1,76.2,385.3,91.9,382.6,95z"/>
	<g>
		<rect x="495.8" y="-70.3" class="st3" width="935.1" height="458.8"/>
		<path class="st4" d="M625.3,67.5c0,24.8-20.1,44.9-44.9,44.9c-24.8,0-44.9-20.1-44.9-44.9c0-24.8,20.1-44.9,44.9-44.9
			C605.1,22.5,625.3,42.7,625.3,67.5z M541.4,377.8h75.8V158.2h-75.8V377.8z"/>
		<path class="st4" d="M701,158.2h75.8v23.1h0.9c17.1-17.1,38.9-29.5,62.9-29.5c40.2,0,96.3,20.1,96.3,81.3v144.7h-75.8V253.7
			c0-21.8-15-42.8-39.4-42.8c-22.7,0-44.9,21-44.9,42.8v124.1H701V158.2z"/>
		<path class="st4" d="M1078.9,267.8c0,30.4,23.5,54.4,52.2,54.4c22.7,0,36.8-10.3,36.8-10.3l25.7,52.6c0,0-24.8,19.7-73.6,19.7
			c-63.3,0-121.6-51.4-121.6-115.6c0-64.6,57.8-116.8,121.6-116.8c48.8,0,73.6,20.5,73.6,20.5l-25.7,51.8c0,0-14.1-10.3-36.8-10.3
			C1102.5,213.9,1078.9,237.8,1078.9,267.8z"/>
		<path class="st4" d="M1379.8,326.2c0,32.8-26.6,59.4-59.9,59.4c-32.8,0-59.4-26.6-59.4-59.4c0-33.3,26.6-59.9,59.4-59.9
			C1353.2,266.3,1379.8,292.9,1379.8,326.2z"/>
	</g>
	<rect x="857.6" y="304.3" class="st0" width="82.8" height="179.5"/>
	<g>
	</g>
	<g>
	</g>
	<g>
	</g>
	<g>
	</g>
	<g>
	</g>
</g>
</svg>
