<?xml version="1.0" encoding="utf-8"?>
<!-- Generator: Adobe Illustrator 21.0.0, SVG Export Plug-In . SVG Version: 6.00 Build 0)  -->
<svg version="1.1" xmlns="http://www.w3.org/2000/svg" xmlns:xlink="http://www.w3.org/1999/xlink" x="0px" y="0px"
	 viewBox="0 0 619.8 619.8" style="enable-background:new 0 0 619.8 619.8;" xml:space="preserve">
<style type="text/css">
	.st0{fill:#FFFFFF;}
	.st1{fill:#FFFFFF;stroke:#FFFFFF;stroke-miterlimit:10;}
	.st2{fill:none;stroke:#FFFFFF;stroke-width:8;stroke-miterlimit:10;}
</style>
<g id="Layer_1">
</g>
<g id="Layer_2">
	
		<ellipse transform="matrix(0.9978 -6.633908e-02 6.633908e-02 0.9978 -9.0749 31.037)" class="st0" cx="462.8" cy="152.2" rx="4.8" ry="13.1"/>
	
		<ellipse transform="matrix(6.633908e-02 -0.9978 0.9978 6.633908e-02 -11.3507 292.8499)" class="st0" cx="150.8" cy="152.5" rx="13.1" ry="4.8"/>
	
		<ellipse transform="matrix(0.9978 -6.633908e-02 6.633908e-02 0.9978 -12.3544 8.8712)" class="st0" cx="127.4" cy="190.5" rx="4.8" ry="13.1"/>
	
		<ellipse transform="matrix(6.633908e-02 -0.9978 0.9978 6.633908e-02 263.7339 662.6718)" class="st0" cx="486" cy="190.4" rx="13.1" ry="4.8"/>
	<ellipse transform="matrix(0.979 -0.204 0.204 0.979 -46.0589 27.303)" class="st0" cx="109.4" cy="237.1" rx="4.8" ry="13.1"/>
	<ellipse transform="matrix(0.204 -0.979 0.979 0.204 168.3371 681.1393)" class="st0" cx="503" cy="237.1" rx="13.1" ry="4.8"/>
	<ellipse transform="matrix(0.5 -0.866 0.866 0.5 4.6704 583.8698)" class="st1" cx="508" cy="287.9" rx="13.1" ry="4.8"/>
	<ellipse transform="matrix(0.866 -0.5 0.5 0.866 -129.9134 90.8605)" class="st0" cx="104.6" cy="287.8" rx="4.8" ry="13.1"/>
	
		<ellipse transform="matrix(0.6188 -0.7856 0.7856 0.6188 -69.3029 520.8853)" class="st0" cx="502" cy="331.8" rx="13.1" ry="4.8"/>
	
		<ellipse transform="matrix(0.7856 -0.6188 0.6188 0.7856 -181.7617 139.2379)" class="st0" cx="110" cy="331.9" rx="4.8" ry="13.1"/>
	
		<ellipse transform="matrix(0.7071 -0.7071 0.7071 0.7071 -122.7661 453.4659)" class="st0" cx="486" cy="374.9" rx="13.1" ry="4.8"/>
	
		<ellipse transform="matrix(0.7071 -0.7071 0.7071 0.7071 -228.7278 201.1157)" class="st0" cx="128.4" cy="376.7" rx="4.8" ry="13.1"/>
	<ellipse transform="matrix(0.866 -0.5 0.5 0.866 -143.8126 286.8616)" class="st0" cx="463.4" cy="411.8" rx="13.1" ry="4.8"/>
	<ellipse transform="matrix(0.5 -0.866 0.866 0.5 -281.2759 336.3302)" class="st0" cx="150.6" cy="411.8" rx="4.8" ry="13.1"/>
	
		<ellipse transform="matrix(0.9579 -0.287 0.287 0.9579 -109.8375 141.0215)" class="st0" cx="426.1" cy="445.2" rx="13.1" ry="4.8"/>
	
		<ellipse transform="matrix(0.287 -0.9579 0.9579 0.287 -293.9842 492.3368)" class="st0" cx="183.7" cy="443.7" rx="4.8" ry="13.1"/>
	
		<ellipse transform="matrix(0.9967 -8.082701e-02 8.082701e-02 0.9967 -36.4776 32.7665)" class="st0" cx="386.5" cy="466.9" rx="13.1" ry="4.8"/>
	
		<ellipse transform="matrix(8.082733e-02 -0.9967 0.9967 8.082733e-02 -256.6353 655.6453)" class="st0" cx="227.2" cy="467" rx="4.8" ry="13.1"/>
	<path class="st1" d="M306.2,480.7c-10.9,0.5-21.9,1.8-32.6,4.2c-9,2-27.9,6.6-25.4,19.4c0.4,1.9,3.3,1.1,2.9-0.8
		c-2.3-11.6,20.5-15.3,27.9-16.7c9-1.7,18.1-2.8,27.2-3.2C308.1,483.6,308.1,480.6,306.2,480.7z"/>
	<path class="st1" d="M306.2,483.7c9.1,0.4,18.3,1.5,27.2,3.2c7.4,1.4,30.1,5.1,27.9,16.7c-0.4,1.9,2.5,2.7,2.9,0.8
		c2.5-12.8-16.4-17.4-25.4-19.4c-10.6-2.4-21.7-3.8-32.6-4.2C304.3,480.6,304.3,483.6,306.2,483.7z"/>
	<path class="st1" d="M305.2,486.7c8.8,0.4,17.7,1.4,26.4,3.1c5.5,1,27.4,4.7,25.8,13c-1.1,5.7,7.6,8.1,8.7,2.4
		c2.9-15.1-16.4-20.6-27.5-23.1c-10.9-2.5-22.2-3.9-33.4-4.3C299.4,477.5,299.4,486.5,305.2,486.7z"/>
	<path class="st1" d="M307.6,477.7c-11.2,0.5-22.5,1.9-33.4,4.3c-11.1,2.5-30.4,8-27.5,23.1c1.1,5.7,9.8,3.3,8.7-2.4
		c-1.6-8.2,20.3-11.9,25.8-13c8.7-1.7,17.6-2.7,26.4-3.1C313.3,486.5,313.4,477.5,307.6,477.7z"/>
	<path class="st1" d="M249.8,504.3c1.9,0,1.9-3,0-3C247.8,501.3,247.8,504.3,249.8,504.3z"/>
	<path class="st1" d="M250,504.9c1.9,0,1.9-3,0-3C248,501.9,248,504.9,250,504.9z"/>
	<path class="st1" d="M248.9,504.3C249,504.4,249,504.4,248.9,504.3s-0.1-0.4,0-0.6c0.5-0.4,1-0.7,1.4-1.1c-0.1,0-0.2,0-0.4,0
		c-0.8,0.1-1.5,0.7-1.5,1.5s0.7,1.6,1.5,1.5h0.4c0.6,0,1.3-0.4,1.4-1.1c0.2-0.9-0.1-1.7-0.8-2.3c-0.6-0.6-1.5-0.6-2.1,0
		C248.3,502.7,248.3,503.7,248.9,504.3L248.9,504.3z"/>
	<path class="st1" d="M362.8,505c1.9,0,1.9-3,0-3S360.9,505,362.8,505z"/>
	<path class="st1" d="M361.4,503.1c0.1-0.2,0.1-0.3,0.3-0.4c0.1-0.1,0.1-0.1,0,0c-1.3,0.6-0.7,2.9,0.8,2.8h0.2
		c0.8,0,1.5-0.7,1.5-1.5s-0.7-1.5-1.5-1.5c-0.1,0-0.1,0-0.2,0c0.3,0.9,0.5,1.9,0.8,2.8c0.5-0.3,1-0.8,1.1-1.4c0.2-0.8-0.2-1.7-1-1.8
		C362.5,501.9,361.6,502.3,361.4,503.1L361.4,503.1z"/>
	<path class="st0" d="M182.3,131.1c1.7,2,7.6-0.3,13-5.1c5.4-4.8,8.4-10.3,6.7-12.3s-11.1-4.2-16.5,0.6S180.5,129.1,182.3,131.1z"/>
	<path class="st2" d="M184.9,126.7c-46,36.1-75.5,92.2-75.5,155.2c0,109,88.3,197.3,197.3,197.3S504,390.9,504,281.9
		c0-63-29.5-119.1-75.5-155.2"/>
	<path class="st0" d="M433.1,131.1c-1.7,2-7.6-0.3-13-5.1c-5.4-4.8-8.4-10.3-6.7-12.3s11.1-4.2,16.5,0.6S434.8,129.1,433.1,131.1z"
		/>
</g>
</svg>
